<svg width="15" height="16" viewBox="0 0 15 16" fill="none" xmlns="http://www.w3.org/2000/svg">
<path d="M7.5 1.62256C3.87598 1.62256 0.9375 4.56104 0.9375 8.18506C0.9375 11.8091 3.87598 14.7476 7.5 14.7476C11.124 14.7476 14.0625 11.8091 14.0625 8.18506C14.0625 4.56104 11.124 1.62256 7.5 1.62256ZM10.0854 10.2021L9.6665 10.7734C9.65739 10.7859 9.64591 10.7964 9.63272 10.8044C9.61953 10.8124 9.60489 10.8177 9.58965 10.82C9.5744 10.8223 9.55885 10.8216 9.54388 10.8179C9.52892 10.8142 9.51483 10.8075 9.50244 10.7983L7.07959 9.03174C7.0645 9.0209 7.05223 9.00659 7.04381 8.99002C7.0354 8.97345 7.03109 8.95511 7.03125 8.93652V4.90381C7.03125 4.83936 7.08398 4.78662 7.14844 4.78662H7.85303C7.91748 4.78662 7.97021 4.83936 7.97021 4.90381V8.5293L10.0591 10.0396C10.1118 10.0762 10.1235 10.1494 10.0854 10.2021Z" fill="#D0D0D2"/>
</svg>
