<svg width="18" height="19" viewBox="0 0 18 19" fill="none" xmlns="http://www.w3.org/2000/svg">
<path d="M9 15.935C8.05271 15.127 7.17465 14.2411 6.375 13.2868C5.175 11.8535 3.75 9.71901 3.75 7.68501C3.74948 6.64623 4.05713 5.63064 4.63402 4.76678C5.21091 3.90291 6.0311 3.2296 6.9908 2.83205C7.9505 2.43451 9.00656 2.3306 10.0253 2.53347C11.0441 2.73635 11.9798 3.23689 12.714 3.97176C13.2028 4.4584 13.5903 5.03716 13.8539 5.67454C14.1176 6.31191 14.2522 6.99525 14.25 7.68501C14.25 9.71901 12.825 11.8535 11.625 13.2868C10.8254 14.2411 9.94729 15.127 9 15.935ZM9 5.43501C8.40326 5.43501 7.83097 5.67206 7.40901 6.09402C6.98705 6.51597 6.75 7.08827 6.75 7.68501C6.75 8.28174 6.98705 8.85404 7.40901 9.276C7.83097 9.69795 8.40326 9.93501 9 9.93501C9.59674 9.93501 10.169 9.69795 10.591 9.276C11.0129 8.85404 11.25 8.28174 11.25 7.68501C11.25 7.08827 11.0129 6.51597 10.591 6.09402C10.169 5.67206 9.59674 5.43501 9 5.43501Z" fill="#D0D0D2"/>
</svg>
